<svg id="Capa_1" enable-background="new 0 0 512.004 512.004" height="512" viewBox="0 0 512.004 512.004" width="512" xmlns="http://www.w3.org/2000/svg"><g><path d="m256.002 271.004c-8.284 0-15 6.716-15 15v50.729l-51.708 25.854c-7.41 3.705-10.413 12.715-6.708 20.125 2.628 5.257 7.925 8.295 13.428 8.295 2.254 0 4.543-.51 6.696-1.587l53.292-26.646 53.292 26.646c2.153 1.077 4.441 1.587 6.696 1.587 5.502 0 10.8-3.039 13.428-8.295 3.705-7.41.702-16.419-6.708-20.125l-51.708-25.854v-50.729c0-8.285-6.716-15-15-15z"/><path d="m165.002 332.004c0-33.084-26.916-60-60-60s-60 26.916-60 60 26.916 60 60 60 60-26.916 60-60zm-60 30c-16.542 0-30-13.458-30-30s13.458-30 30-30 30 13.458 30 30-13.458 30-30 30z"/><path d="m105.002 392.004c-57.897 0-105 47.103-105 105 0 8.284 6.716 15 15 15h180c8.284 0 15-6.716 15-15 0-57.897-47.103-105-105-105zm-73.493 90c6.97-34.191 37.274-60 73.493-60s66.523 25.809 73.493 60z"/><path d="m467.002 332.004c0-33.084-26.916-60-60-60s-60 26.916-60 60 26.916 60 60 60 60-26.916 60-60zm-60 30c-16.542 0-30-13.458-30-30s13.458-30 30-30 30 13.458 30 30-13.458 30-30 30z"/><path d="m407.002 392.004c-57.897 0-105 47.103-105 105 0 8.284 6.716 15 15 15h180c8.284 0 15-6.716 15-15 0-57.897-47.103-105-105-105zm-73.493 90c6.97-34.191 37.274-60 73.493-60s66.523 25.809 73.493 60z"/><path d="m214.427 143.09c9.496 22.922 35.869 33.85 58.796 24.353 22.924-9.495 33.849-35.871 24.354-58.794-9.495-22.924-35.871-33.85-58.796-24.354-22.924 9.495-33.849 35.87-24.354 58.795zm35.835-31.079c7.655-3.17 16.439.49 19.599 8.118 3.165 7.642-.477 16.434-8.118 19.599s-16.435-.476-19.599-8.117c-3.166-7.643.476-16.435 8.118-19.6z"/><path d="m131.278 177.531c3.165 7.642 11.935 11.293 19.599 8.118l14.858-6.155c9.156 15.434 21.883 27.845 36.658 36.6l-6.172 14.9c-3.17 7.654.465 16.428 8.118 19.599 7.669 3.176 16.435-.48 19.599-8.118l6.17-14.897c8.45 2.162 17.192 3.292 26.03 3.292 8.563 0 17.218-1.061 25.775-3.246l6.151 14.851c3.165 7.642 11.934 11.293 19.599 8.118 7.653-3.17 11.288-11.945 8.118-19.599l-6.152-14.852c15.434-9.156 27.851-21.885 36.606-36.661l14.89 6.168c7.667 3.177 16.435-.479 19.599-8.118 3.17-7.653-.465-16.428-8.118-19.598l-14.89-6.168c4.258-16.639 4.479-34.421.039-51.809l14.852-6.152c7.653-3.17 11.288-11.945 8.118-19.598-3.17-7.654-11.944-11.289-19.599-8.118l-14.852 6.152c-9.156-15.434-21.885-27.851-36.661-36.606l6.168-14.891c3.17-7.654-.465-16.428-8.118-19.599-7.652-3.169-16.428.464-19.599 8.118l-6.168 14.891c-16.639-4.258-34.42-4.479-51.807-.039l-6.152-14.852c-3.17-7.654-11.946-11.287-19.599-8.118-7.653 3.17-11.288 11.945-8.118 19.599l6.152 14.852c-15.434 9.156-27.851 21.885-36.606 36.661l-14.89-6.168c-7.652-3.171-16.429.464-19.599 8.118-3.17 7.653.465 16.428 8.118 19.598l14.89 6.168c-4.258 16.639-4.479 34.421-.039 51.809l-14.852 6.152c-7.651 3.17-11.286 11.945-8.116 19.598zm194.015-80.363c15.826 38.207-2.383 82.167-40.59 97.992-38.293 15.863-82.128-2.289-97.992-40.589-15.826-38.207 2.383-82.167 40.59-97.992 38.205-15.826 82.166 2.38 97.992 40.589z"/></g></svg>