<svg width="80" height="80" viewBox="0 0 80 80" fill="none" xmlns="http://www.w3.org/2000/svg">
<g clip-path="url(#clip0)">
<path d="M20.1517 40.2097C9.38478 40.2097 0.625244 48.9663 0.625244 59.7296C0.625244 70.493 9.38478 79.2496 20.1517 79.2496C30.9185 79.2496 39.6779 70.493 39.6779 59.7296C39.6779 48.9663 30.9184 40.2097 20.1517 40.2097ZM20.1517 76.9057C10.6771 76.9057 2.96899 69.2005 2.96899 59.7294C2.96899 50.2583 10.6771 42.5535 20.1517 42.5535C29.6262 42.5535 37.3341 50.2586 37.3341 59.7296C37.3341 69.2005 29.626 76.9057 20.1517 76.9057Z" fill="#1C60DD"/>
<path d="M20.1517 44.8972C11.9695 44.8972 5.31274 51.551 5.31274 59.7296C5.31274 60.5782 5.3854 61.4296 5.52884 62.2599C5.63899 62.8977 6.24571 63.3252 6.88306 63.2152C7.52087 63.105 7.94853 62.4988 7.83837 61.861C7.71759 61.1617 7.65634 60.4449 7.65634 59.7294C7.65634 52.8433 13.2616 47.2408 20.1515 47.2408C27.0413 47.2408 32.6465 52.8432 32.6465 59.7294C32.6465 66.6157 27.0412 72.2182 20.1515 72.2182C15.7777 72.2182 11.7943 69.9853 9.49571 66.2455C9.15696 65.6939 8.43509 65.5216 7.88368 65.8606C7.33228 66.1996 7.16009 66.9213 7.49899 67.4725C10.2273 71.9116 14.9571 74.5617 20.1515 74.5617C28.3337 74.5617 34.9902 67.908 34.9902 59.7292C34.9904 51.551 28.3337 44.8972 20.1517 44.8972Z" fill="#1C60DD"/>
<path d="M17.1672 67.4334V68.3047C17.1672 68.952 17.6918 69.4765 18.339 69.4765C18.9862 69.4765 19.5109 68.952 19.5109 68.3047V67.4334H20.8611V68.3047C20.8611 68.952 21.3858 69.4765 22.0329 69.4765C22.6801 69.4765 23.2048 68.952 23.2048 68.3047V67.4334H23.2686C25.7425 67.4334 27.7551 65.4208 27.7551 62.9433C27.7551 61.2981 26.8645 59.8578 25.5406 59.0769C26.1387 58.314 26.4967 57.3539 26.4967 56.3104C26.4967 54.2501 25.1004 52.5111 23.2048 51.9867V50.9526C23.2048 50.3053 22.6801 49.7808 22.0329 49.7808C21.3858 49.7808 20.8611 50.3053 20.8611 50.9526V51.8239H19.5109V50.9526C19.5109 50.3053 18.9862 49.7808 18.339 49.7808C17.6918 49.7808 17.1672 50.3053 17.1672 50.9526V51.8239H14.5637C13.9165 51.8239 13.3918 52.3484 13.3918 52.9958C13.3918 53.6431 13.9165 54.1676 14.5637 54.1676H15.3458V65.0897H14.5637C13.9165 65.0897 13.3918 65.6142 13.3918 66.2615C13.3918 66.9089 13.9165 67.4334 14.5637 67.4334H17.1672ZM23.2686 60.8004C24.4501 60.8004 25.4114 61.7617 25.4114 62.9469C25.4114 64.1284 24.4501 65.0897 23.2686 65.0897H17.6895V60.8004H23.2686ZM24.1529 56.3139C24.1529 57.4954 23.1917 58.4567 22.0101 58.4567H17.6895V54.1676H22.0101C23.1918 54.1676 24.1529 55.1289 24.1529 56.3139Z" fill="#1C60DD"/>
<path d="M59.8488 41.0237C70.6156 41.0237 79.3752 32.2672 79.3752 21.5037C79.3752 10.7405 70.6156 1.98389 59.8488 1.98389C49.0819 1.98389 40.3225 10.7405 40.3225 21.5037C40.3225 32.2672 49.0819 41.0237 59.8488 41.0237ZM59.8488 4.32764C69.3233 4.32764 77.0314 12.0326 77.0314 21.5037C77.0314 30.9748 69.3233 38.68 59.8488 38.68C50.3742 38.68 42.6663 30.9748 42.6663 21.5037C42.6663 12.0326 50.3742 4.32764 59.8488 4.32764Z" fill="#1C60DD"/>
<path d="M59.8486 36.3361C68.0308 36.3361 74.6875 29.6824 74.6875 21.5036C74.6875 19.9943 74.4602 18.5043 74.0119 17.0747C73.8183 16.4572 73.1605 16.1132 72.5431 16.3072C71.9255 16.5008 71.5819 17.1585 71.7756 17.776C72.1527 18.9782 72.3438 20.2324 72.3438 21.5035C72.3438 28.3897 66.7384 33.9922 59.8486 33.9922C52.9588 33.9922 47.3536 28.3899 47.3536 21.5035C47.3536 14.6174 52.9589 9.01489 59.8486 9.01489C63.5855 9.01489 67.0984 10.6735 69.4874 13.5655C69.8994 14.0644 70.638 14.135 71.1372 13.7227C71.6361 13.3105 71.7066 12.5719 71.2944 12.0729C68.4589 8.63989 64.287 6.67114 59.8488 6.67114C51.6666 6.67114 45.01 13.3249 45.01 21.5035C45.0099 29.6824 51.6664 36.3361 59.8486 36.3361Z" fill="#1C60DD"/>
<path d="M55.0238 29.1422C55.2457 29.4297 55.5883 29.598 55.9514 29.598H63.2672C63.9144 29.598 64.4391 29.0735 64.4391 28.4261C64.4391 27.7788 63.9144 27.2543 63.2672 27.2543H57.4694L58.8374 22.0258L61.3924 21.2743C62.0133 21.0916 62.3686 20.4402 62.186 19.8193C62.0035 19.1983 61.3518 18.8429 60.731 19.0257L59.5297 19.3789L61.2655 12.7449C61.4293 12.1188 61.0546 11.4785 60.4285 11.3146C59.8025 11.1514 59.1619 11.5257 58.9982 12.1516L56.9052 20.151L54.1616 20.9579C53.5407 21.1405 53.1854 21.7919 53.368 22.4128C53.5182 22.9235 53.9854 23.2544 54.4918 23.2544C54.6013 23.2544 54.7127 23.2389 54.823 23.2064L56.2127 22.7977L54.8177 28.1294C54.7257 28.4807 54.8018 28.8549 55.0238 29.1422Z" fill="#1C60DD"/>
<path d="M3.67876 40.6664C3.72626 40.6664 3.77423 40.6636 3.8222 40.6576C4.38548 40.5886 4.81829 40.1258 4.8497 39.5592C5.1472 34.1755 7.31516 29.0108 10.954 25.0166C14.4922 21.1332 19.2717 18.519 24.4549 17.623L25.0043 22.0772C25.0665 22.5811 25.3216 23.0304 25.7226 23.3419C26.5471 23.9832 27.7423 23.8368 28.3869 23.0155L37.1758 11.8171C37.4894 11.4173 37.628 10.9198 37.5661 10.4159C37.5043 9.91181 37.2491 9.46228 36.8477 9.15009L25.5985 0.400912C25.1993 0.0904443 24.7026 -0.0464301 24.199 0.0143509C23.696 0.0760694 23.2468 0.32935 22.9343 0.727473C22.6204 1.12747 22.4818 1.62528 22.544 2.12966L23.1018 6.65276C21.9904 6.84057 20.8849 7.10182 19.8096 7.43073C13.1417 9.47009 7.67672 13.9763 4.42126 20.119C1.18237 26.2307 0.521277 33.2342 2.55986 39.8401C2.71283 40.3361 3.17064 40.6664 3.67876 40.6664ZM6.49219 21.2166C9.45405 15.6279 14.427 11.5281 20.4953 9.67212C21.5995 9.33431 22.7385 9.0751 23.8792 8.90182C24.9045 8.7476 25.608 7.82198 25.481 6.79526L25.0012 2.90543L35.054 10.7242L27.1998 20.7316L26.7245 16.8776C26.596 15.8393 25.6445 15.0988 24.6181 15.224C24.6073 15.2252 24.5816 15.2285 24.5698 15.2301C24.5631 15.231 24.5563 15.2321 24.5496 15.233C18.6651 16.1335 13.2214 19.0474 9.22124 23.4382C6.74281 26.1588 4.88485 29.3733 3.75205 32.8333C3.64236 28.8331 4.56595 24.8511 6.49219 21.2166Z" fill="#1C60DD"/>
<path d="M75.7871 39.3427C75.2238 39.4117 74.791 39.8745 74.7596 40.4411C74.4619 45.8248 72.2941 50.9895 68.6551 54.9837C65.1171 58.8671 60.3376 61.4813 55.1542 62.3773L54.6048 57.9235C54.5428 57.4195 54.2876 56.9701 53.8865 56.6584C53.062 56.017 51.867 56.1637 51.2222 56.9848L42.4333 68.1832C42.1197 68.583 41.9811 69.0805 42.043 69.5844C42.1049 70.0885 42.36 70.538 42.7614 70.8502L54.0104 79.5994C54.3475 79.8616 54.7539 80 55.1754 80C55.2532 80 55.3315 79.9953 55.41 79.9858C55.9131 79.9241 56.3621 79.6708 56.6748 79.2725C56.9885 78.8727 57.1273 78.3747 57.065 77.8705L56.5071 73.3474C57.6185 73.1596 58.724 72.8983 59.7995 72.5694C66.4674 70.5302 71.9326 66.024 75.188 59.8813C78.4269 53.7696 79.088 46.7661 77.0494 40.1602C76.8821 39.618 76.3494 39.273 75.7871 39.3427ZM73.1172 58.7838C70.1554 64.3726 65.1824 68.4724 59.1142 70.3283C58.0099 70.6661 56.8709 70.9253 55.7303 71.0986C54.7051 71.2528 54.0015 72.1783 54.1284 73.2052L54.6081 77.095L44.5553 69.2763L52.4095 59.2688L52.8848 63.1229C53.0133 64.1612 53.9642 64.9016 54.9912 64.7765C55.002 64.7752 55.0276 64.7719 55.0395 64.7704C55.0462 64.7694 55.0529 64.7683 55.0596 64.7674C60.9442 63.8669 66.3879 60.953 70.3879 56.5623C72.8663 53.8417 74.7243 50.627 75.8571 47.167C75.9671 51.1675 75.0435 55.1488 73.1172 58.7838Z" fill="#1C60DD"/>
</g>
<defs>
<clipPath id="clip0">
<rect width="80" height="80" fill="white"/>
</clipPath>
</defs>
</svg>
