<svg width="80" height="80" viewBox="0 0 80 80" fill="none" xmlns="http://www.w3.org/2000/svg">
<path d="M6.3262 59.7637C4.81924 59.7637 4.8168 62.1056 6.3262 62.1056C7.83316 62.1056 7.8356 59.7637 6.3262 59.7637Z" fill="#1C60DD"/>
<path d="M78.6023 52.4194C77.2858 51.0235 75.2618 50.6103 73.5413 51.2274C73.4399 50.141 72.9779 49.1198 72.2034 48.2989C70.4828 46.4752 67.5531 46.3263 65.6726 47.9675L47.9932 63.3856L40.2515 61.513C39.0027 61.2109 38.5223 60.2533 38.4894 59.4574C38.4583 58.6969 38.8348 57.749 39.9835 57.3602L48.9465 54.7357C48.9594 54.732 48.9722 54.7277 48.985 54.7235C51.4404 53.9111 52.7466 51.3842 51.9598 48.9715L51.8866 48.7463C51.5088 47.5897 50.6909 46.643 49.5831 46.0815C48.4442 45.5047 47.1509 45.4065 45.9534 45.8001L23.4747 52.9211C20.1361 53.9788 17.2949 56.2963 15.5786 59.3359H12.6892V55.7818C12.6892 55.1355 12.1649 54.6112 11.5179 54.6112H1.3269C0.680542 54.6112 0.15625 55.1355 0.15625 55.7818V65.7745C0.15625 67.2845 2.49817 67.2845 2.49817 65.7745V56.9531H10.3473V77.658H2.49817V73.2678C2.49817 71.7578 0.15625 71.7578 0.15625 73.2678V78.8293C0.15625 79.4757 0.680542 80 1.3269 80H11.5179C12.1649 80 12.6892 79.4757 12.6892 78.8293V75.8544L57.4878 76.1492H57.5073C58.6517 76.1492 59.7479 75.7415 60.5939 75.0006C61.8658 73.8879 77.0801 60.5426 78.2892 59.4793C79.3024 58.5888 79.8944 57.3657 79.9567 56.0351C80.0195 54.696 79.538 53.4118 78.6023 52.4194ZM76.7432 57.7203C75.5341 58.7835 60.3229 72.1258 59.0521 73.2379C58.6322 73.6053 58.0847 73.8073 57.5104 73.8073C57.5073 73.8073 57.5037 73.8073 57.5006 73.8073L12.6892 73.5125V61.6778H16.2836C16.7285 61.6778 17.135 61.4257 17.3322 61.0266C18.7158 58.2354 21.2128 56.0943 24.1821 55.1538L46.673 48.0285C49.541 47.0849 51.1743 51.5094 48.2672 52.4945L39.3048 55.119C39.292 55.1226 39.2792 55.1269 39.2664 55.1312C37.2894 55.7855 36.0669 57.5213 36.1499 59.5532C36.2354 61.6253 37.6294 63.2885 39.7015 63.7896L54.9481 67.4762C55.321 67.5665 55.6995 67.611 56.0742 67.611C57.2009 67.611 58.3008 67.2113 59.1559 66.4654L63.9233 62.3053C65.061 61.3122 63.5217 59.5477 62.384 60.5407L57.616 64.7009C57.0477 65.1965 56.2561 65.3833 55.4987 65.2002L50.7831 64.06L67.2125 49.732C69.5886 47.658 72.655 51.427 70.4102 53.5369L67.3798 56.1816C66.2415 57.1746 67.7814 58.9392 68.9191 57.9461L71.8103 55.4235C71.8378 55.4034 71.8652 55.382 71.8909 55.3595C71.9342 55.321 71.9757 55.2813 72.0178 55.2423L73.6108 53.8519C76.0211 51.7486 79.1064 55.6433 76.7432 57.7203Z" fill="#1C60DD"/>
<path d="M50.6641 36.9409C60.8484 36.9409 69.1345 28.6548 69.1345 18.4705C69.1345 8.28613 60.8484 0 50.6641 0C47.8619 0 45.1697 0.611572 42.6624 1.81885C41.3013 2.47375 42.3169 4.58374 43.678 3.92883C45.8655 2.87598 48.2159 2.34192 50.6641 2.34192C59.5575 2.34192 66.7926 9.57703 66.7926 18.4705C66.7926 27.3639 59.5575 34.599 50.6641 34.599C41.7706 34.599 34.5349 27.3639 34.5349 18.4705C34.5349 14.5282 35.9723 10.733 38.5828 7.78442C39.5837 6.65405 37.8302 5.10132 36.8292 6.2323C33.8397 9.60938 32.1936 13.9557 32.1936 18.4705C32.1936 28.6548 40.4791 36.9409 50.6641 36.9409Z" fill="#1C60DD"/>
<path d="M44.8613 26.6151C44.8613 27.2736 45.3923 27.8663 46.0631 27.8663H47.2063V29.3305C47.2063 30.8405 49.5476 30.8405 49.5476 29.3305V27.8663H51.5465V29.3305C51.5465 30.8405 53.8884 30.8405 53.8884 29.3305V27.6746C56.1101 27.0582 57.7458 25.0196 57.7458 22.6044C57.7458 20.8326 56.8645 19.264 55.5187 18.31C56.5514 17.3487 57.199 15.9791 57.199 14.4599C57.199 12.248 55.8263 10.3516 53.8884 9.57465V7.61053C53.8884 6.10052 51.5465 6.10052 51.5465 7.61053V9.19806H49.5476V7.61053C49.5476 6.10052 47.2063 6.10052 47.2063 7.61053V9.19806H46.032C45.385 9.19806 44.8613 9.72235 44.8613 10.3687C44.8613 10.3821 44.8625 10.3956 44.8632 10.409C44.8625 10.4224 44.8613 10.4352 44.8613 10.4493V26.6151ZM55.4039 22.6044C55.4039 24.2145 54.0941 25.525 52.484 25.525H47.2032V19.7217H51.9371C52.1385 19.7217 52.3369 19.7089 52.5322 19.687C54.1198 19.7132 55.4039 21.0108 55.4039 22.6044ZM54.8571 14.4599C54.8571 15.9193 53.7792 17.129 52.3784 17.3426H47.2026V11.54H51.9371C53.5472 11.54 54.8571 12.8498 54.8571 14.4599Z" fill="#1C60DD"/>
<path d="M58.0017 38.5314V48.0547C58.0017 49.5654 60.343 49.5654 60.343 48.0547V38.5314C60.343 37.0214 58.0017 37.0214 58.0017 38.5314Z" fill="#1C60DD"/>
<path d="M49.7271 39.4684V42.9029C49.7271 44.4135 52.069 44.4135 52.069 42.9029V39.4684C52.069 37.9578 49.7271 37.9578 49.7271 39.4684Z" fill="#1C60DD"/>
<path d="M41.4526 38.5314V42.9028C41.4526 44.4134 43.7946 44.4134 43.7946 42.9028V38.5314C43.7946 37.0214 41.4526 37.0214 41.4526 38.5314Z" fill="#1C60DD"/>
</svg>
