<svg id="Capa_1" enable-background="new 0 0 512 512" height="512" viewBox="0 0 512 512" width="512" xmlns="http://www.w3.org/2000/svg"><g><g><g><path d="m304.422 0-13.511 32.244c-6.881 2.294-13.596 5.091-20.086 8.366l-27.874-18.854-58.811 58.692 18.93 28.111c-3.321 6.686-6.136 13.618-8.416 20.722l-32.899 16.953.511 61.407 32.6 13.544c2.21 6.776 4.909 13.395 8.07 19.792l-18.988 28.073 58.691 58.809 27.917-18.798c6.576 3.336 13.383 6.179 20.355 8.504l13.511 32.244h32.456l26.67-177.768-26.67-172.041z" fill="#45e6d1"/><path d="m512 207.455v-65.102l-30.281-13.135c-2.445-7.672-5.508-15.139-9.156-22.32l17.679-26.138-58.691-58.811-26.755 18.017c-7.028-3.461-14.312-6.364-21.78-8.68l-13.298-31.286h-32.841v349.808h32.841l13.299-31.285c7.367-2.285 14.56-5.143 21.502-8.545l26.721 18.074 58.811-58.691-17.628-26.177c3.711-7.268 6.82-14.826 9.296-22.594z" fill="#29cccc"/></g><g><path d="m254.275 174.905c0 45.897 36.908 83.331 82.603 84.193l23.24-85.914-23.24-82.473c-45.695.863-82.603 38.296-82.603 84.194z" fill="#29cccc"/><path d="m338.489 90.691c-.539 0-1.075.01-1.611.02v168.387c.536.01 1.073.02 1.611.02 46.436 0 84.214-37.778 84.214-84.214s-37.778-84.213-84.214-84.213z" fill="#00b1cd"/></g></g><path d="m297.871 214.129c-48.59-48.591-127.654-48.591-176.244 0-48.591 48.591-48.591 127.653 0 176.244l122.106-48.381z" fill="#eff7ff"/><path d="m297.871 214.129-176.244 176.243c24.295 24.295 56.208 36.443 88.122 36.443 31.913 0 63.827-12.148 88.122-36.443 48.591-48.59 48.591-127.653 0-176.243z" fill="#dbecff"/><g><path d="m85.507 365.486-38.56 38.56 3.905 57.102 56.575-28.597 8.583-36.561z" fill="#b9f"/><path d="m50.852 461.148 57.101 3.905 38.56-38.56-30.503-30.503z" fill="#8080ff"/></g><g><path d="m127.117 384.882c-22.072-22.072-34.227-51.418-34.227-82.632s12.155-60.56 34.227-82.632 51.418-34.227 82.632-34.227 60.56 12.155 82.632 34.227l23.331 4.647-2.118-25.86c-57.26-57.261-150.43-57.261-207.689 0-57.26 57.26-57.26 150.429 0 207.689l23.03 2.819z" fill="#ced8ed"/><path d="m292.381 219.619c22.072 22.072 34.227 51.418 34.227 82.632s-12.155 60.56-34.227 82.632-51.418 34.227-82.632 34.227-60.56-12.155-82.632-34.227l-21.213 21.213c28.63 28.63 66.237 42.945 103.845 42.945 37.607 0 75.215-14.315 103.845-42.945 57.26-57.26 57.26-150.429 0-207.689z" fill="#b8c6e6"/><path d="m12.615 438.379c-16.819 16.82-16.819 44.187 0 61.006l47.975-22.836 16.861-42-30.503-30.503z" fill="#d9b3ff"/></g><path d="m43.118 512c11.047 0 22.093-4.205 30.503-12.615l34.332-34.332-30.503-30.503-64.836 64.836c8.41 8.409 19.457 12.614 30.504 12.614z" fill="#b9f"/></g></svg>