<svg id="Layer_1" enable-background="new 0 0 512.008 512.008" height="512" viewBox="0 0 512.008 512.008" width="512" xmlns="http://www.w3.org/2000/svg"><g><path d="m335 220.003c0-63.411-51.589-115-115-115-152.354 5.782-152.312 224.242.001 230 63.41 0 114.999-51.589 114.999-115zm-115 95c-52.383 0-95-42.617-95-95 4.776-125.857 185.243-125.823 190 .001 0 52.382-42.617 94.999-95 94.999z"/><path d="m220 170.002c-24.04 0-46.641 9.362-63.64 26.36-3.905 3.905-3.905 10.237 0 14.143 3.906 3.905 10.236 3.905 14.143 0 26.056-27.157 72.939-27.156 98.994.001 1.953 1.952 4.512 2.928 7.071 2.928 8.681.154 13.409-10.92 7.071-17.071-16.998-16.999-39.599-26.361-63.639-26.361z"/><path d="m220 210.002c-13.356 0-25.912 5.201-35.355 14.645-9.032 9.68 4.454 23.18 14.143 14.141 11.166-11.638 31.259-11.638 42.426.001 9.668 9.033 23.186-4.454 14.142-14.143-9.445-9.443-22.002-14.644-35.356-14.644z"/><path d="m219.996 250.002c-5.522 0-10 4.477-10 10 .49 13.251 19.518 13.249 20.004 0 0-5.523-4.481-10-10.004-10z"/><path d="m509.073 324.121-49.188-49.187c-1.876-1.875-4.419-2.929-7.071-2.929h-50.8c.863-3.026 1.65-6.076 2.36-9.138l18.733-3.122c9.945-1.658 16.892-9.224 16.892-18.4v-42.684c0-9.176-6.946-16.742-16.893-18.4l-18.729-3.122c-4.691-20.309-12.64-39.495-23.696-57.199l11.039-15.456c5.859-8.205 5.421-18.466-1.066-24.955l-30.181-30.179c-6.488-6.491-16.75-6.929-24.955-1.067l-15.454 11.038c-17.701-11.057-36.885-19.004-57.2-23.696l-3.122-18.731c-1.658-9.945-9.225-16.891-18.399-16.891h-42.684c-9.175 0-16.741 6.946-18.4 16.892l-3.121 18.729c-20.315 4.692-39.499 12.639-57.2 23.696l-15.454-11.038c-8.204-5.861-18.466-5.424-24.955 1.066l-30.182 30.182c-6.488 6.488-6.928 16.75-1.067 24.956l11.039 15.455c-11.057 17.705-19.005 36.891-23.696 57.199l-18.73 3.122c-9.947 1.657-16.893 9.223-16.893 18.399v42.684c0 9.176 6.946 16.742 16.893 18.4l18.729 3.122c4.691 20.308 12.64 39.495 23.696 57.199l-11.039 15.456c-5.86 8.206-5.421 18.467 1.066 24.955l30.182 30.181c6.487 6.49 16.749 6.928 24.955 1.067l15.454-11.038c17.701 11.057 36.884 19.004 57.2 23.696l3.122 18.731c1.658 9.945 9.225 16.891 18.399 16.891h42.684c9.175 0 16.741-6.946 18.4-16.892l3.121-18.731c12.562-2.908 24.764-7.09 36.456-12.492 8.284 53.958 35.4 104.141 104.309 120.117 94.563-22.338 108.729-105.333 108.374-180.813.001-2.655-1.053-5.198-2.928-7.073zm-256.845 62.072c-4.104.791-7.284 4.052-7.972 8.175-.034.182-4.237 25.469-4.276 25.634h-39.959c.002-.174-4.272-25.447-4.276-25.635-.688-4.123-3.867-7.384-7.972-8.175-22.482-4.333-43.51-13.043-62.498-25.891-3.461-2.341-8.013-2.285-11.416.146-.15.103-21.009 15.015-21.152 15.103l-28.255-28.255c.125-.121 14.974-21.017 15.104-21.153 2.428-3.401 2.487-7.953.145-11.415-12.848-18.996-21.559-40.024-25.891-62.499-.791-4.105-4.052-7.284-8.176-7.971-.181-.035-25.469-4.236-25.634-4.277v-39.959c.174.002 25.446-4.273 25.634-4.277 4.124-.687 7.384-3.866 8.175-7.971 4.332-22.475 13.043-43.502 25.891-62.499 2.342-3.462 2.283-8.014-.146-11.415-.104-.152-15.015-21.007-15.104-21.152l28.255-28.255c.122.125 21.017 14.973 21.153 15.103 3.402 2.429 7.955 2.487 11.416.145 18.989-12.847 40.017-21.558 62.498-25.891 4.104-.791 7.284-4.052 7.972-8.175.034-.182 4.237-25.469 4.276-25.634h39.959c-.002.174 4.272 25.447 4.276 25.635.688 4.123 3.867 7.384 7.972 8.175 22.481 4.333 43.509 13.043 62.498 25.891 3.462 2.341 8.015 2.285 11.416-.146.15-.103 21.009-15.015 21.152-15.103l28.255 28.255c-.125.121-14.974 21.017-15.104 21.153-2.428 3.401-2.487 7.953-.145 11.415 12.848 18.996 21.559 40.023 25.891 62.499.791 4.105 4.052 7.284 8.176 7.971.181.035 25.469 4.236 25.634 4.277v39.959c-.19.039-25.435 4.243-25.634 4.277-4.124.687-7.384 3.867-8.175 7.971-1.284 6.665-2.987 13.297-5.073 19.774h-26.677c-2.652 0-5.195 1.054-7.071 2.929l-49.187 49.187c-1.875 1.875-2.929 4.419-2.929 7.071 0 13.186.386 26.528 1.525 39.699-14.062 7.171-29.028 12.313-44.551 15.304zm151.4 105.436c-76.076-21.762-87.924-87.522-88.36-156.308l43.316-43.316h90.089l43.316 43.316c-.435 68.786-12.284 134.545-88.361 156.308z"/><path d="m436.246 312.005h-65.236c-2.652 0-5.195 1.054-7.071 2.929l-25.532 25.532c-1.949 1.949-3.007 4.616-2.924 7.371 1.185 39.44 7.532 67.06 19.978 86.922 10.101 16.122 24.739 27.494 44.753 34.767 2.205.802 4.625.802 6.83 0 52.19-20.222 61.735-60.518 64.732-121.688.082-2.756-.976-5.423-2.925-7.372 0 0-25.532-25.532-25.532-25.532-1.878-1.875-4.421-2.929-7.073-2.929zm-1.397 112.136c-7.182 11.462-17.159 19.558-31.221 25.275-38.964-16.471-44.88-49.761-48.002-97.886l19.525-19.525h56.953l19.525 19.525c-1.368 33.011-6.869 56.791-16.78 72.611z"/></g></svg>