<svg id="Icons" height="512" viewBox="0 0 74 74" width="512" xmlns="http://www.w3.org/2000/svg"><path d="m37 58a21 21 0 1 1 21-21 21 21 0 0 1 -21 21zm0-40a19 19 0 1 0 19 19 19 19 0 0 0 -19-19z"/><path d="m42 72h-10a1 1 0 0 1 -1-.86l-1-7a27.74 27.74 0 0 1 -7.23-3l-5.69 4.26a1 1 0 0 1 -1.3-.1l-7.06-7.09a1 1 0 0 1 -.1-1.3l4.26-5.69a27.74 27.74 0 0 1 -3-7.23l-7-1a1 1 0 0 1 -.88-.99v-10a1 1 0 0 1 .86-1l7-1a27.74 27.74 0 0 1 3-7.23l-4.24-5.68a1 1 0 0 1 .1-1.3l7.07-7.07a1 1 0 0 1 1.3-.1l5.69 4.26a27.74 27.74 0 0 1 7.23-3l1-7a1 1 0 0 1 .99-.88h10a1 1 0 0 1 1 .86l1 7a27.74 27.74 0 0 1 7.23 3l5.69-4.26a1 1 0 0 1 1.3.1l7.07 7.07a1 1 0 0 1 .1 1.3l-4.26 5.69a27.74 27.74 0 0 1 3 7.23l7 1a1 1 0 0 1 .87 1.01v10a1 1 0 0 1 -.86 1l-7 1a27.74 27.74 0 0 1 -3 7.23l4.26 5.69a1 1 0 0 1 -.1 1.3l-7.07 7.07a1 1 0 0 1 -1.3.1l-5.69-4.26a27.74 27.74 0 0 1 -7.23 3l-1 7a1 1 0 0 1 -1.01.87zm-9.13-2h8.26l1-6.84a1 1 0 0 1 .77-.83 25.89 25.89 0 0 0 7.87-3.27 1 1 0 0 1 1.13 0l5.53 4.15 5.85-5.85-4.15-5.53a1 1 0 0 1 0-1.13 25.89 25.89 0 0 0 3.27-7.87 1 1 0 0 1 .83-.77l6.84-1v-8.19l-6.84-1a1 1 0 0 1 -.83-.77 25.89 25.89 0 0 0 -3.27-7.87 1 1 0 0 1 0-1.13l4.15-5.53-5.85-5.85-5.53 4.15a1 1 0 0 1 -1.13 0 25.89 25.89 0 0 0 -7.87-3.27 1 1 0 0 1 -.77-.83l-1-6.77h-8.26l-1 6.84a1 1 0 0 1 -.77.83 25.89 25.89 0 0 0 -7.87 3.27 1 1 0 0 1 -1.13 0l-5.53-4.15-5.85 5.85 4.15 5.53a1 1 0 0 1 0 1.13 25.89 25.89 0 0 0 -3.27 7.87 1 1 0 0 1 -.83.77l-6.77.93v8.26l6.84 1a1 1 0 0 1 .83.77 25.89 25.89 0 0 0 3.27 7.87 1 1 0 0 1 0 1.13l-4.15 5.53 5.85 5.85 5.53-4.15a1 1 0 0 1 1.13 0 25.89 25.89 0 0 0 7.87 3.27 1 1 0 0 1 .77.83z"/><path d="m37 41a8 8 0 1 1 8-8 8 8 0 0 1 -8 8zm0-14a6 6 0 1 0 6 6 6 6 0 0 0 -6-6z"/><path d="m50.5 51.27a14 14 0 0 0 -27-.13l-1.92-.56a16 16 0 0 1 30.8.15z"/></svg>