<svg xmlns="http://www.w3.org/2000/svg" xmlns:xlink="http://www.w3.org/1999/xlink" preserveAspectRatio="xMidYMid" width="1920" height="1000" viewBox="0 0 1920 1000">
  <defs>
    <style>
      .cls-1 {
        fill: blue;
        stroke: blue;
        fill-rule: evenodd;
      }
    </style>
  </defs>
  <path d="M-85.415,-16.000 L-88.000,860.237 C-88.000,860.237 56.549,998.643 211.824,857.895 C382.414,703.264 509.064,761.836 509.064,761.836 C509.064,761.836 656.391,801.665 746.856,928.181 C810.366,1017.001 953.997,1016.943 1033.757,963.324 C1124.177,902.539 1085.302,878.119 1165.576,799.322 C1247.449,718.957 1393.029,785.265 1393.029,785.265 C1393.029,785.265 1542.941,820.408 1656.668,820.408 C1770.394,820.408 1961.661,640.007 1953.907,581.435 C1946.153,522.863 1972.000,-13.657 1972.000,-13.657 L-85.415,-16.000 Z" class="cls-1"/>
</svg>
