<svg width="80" height="80" viewBox="0 0 80 80" fill="none" xmlns="http://www.w3.org/2000/svg">
<g clip-path="url(#clip0)">
<path d="M65.3335 50.6665C62.7674 50.6647 60.246 51.3382 58.0226 52.6193C55.7992 53.9005 53.9521 55.7442 52.6668 57.9652C51.3812 55.7457 49.5347 53.9031 47.3125 52.6222C45.0903 51.3413 42.5704 50.6671 40.0055 50.6671C37.4405 50.6671 34.9207 51.3413 32.6984 52.6222C30.4762 53.9031 28.6298 55.7457 27.3441 57.9652C25.7239 55.1765 23.2297 52.9996 20.2474 51.7715C17.2652 50.5434 13.9613 50.3325 10.8472 51.1715C7.73299 52.0105 4.98221 53.8526 3.02057 56.4126C1.05894 58.9727 -0.00415039 62.108 -0.00415039 65.3332C-0.00415039 68.5584 1.05894 71.6937 3.02057 74.2537C4.98221 76.8138 7.73299 78.6559 10.8472 79.4949C13.9613 80.3339 17.2652 80.123 20.2474 78.8949C23.2297 77.6668 25.7239 75.4899 27.3441 72.7012C28.6298 74.9207 30.4762 76.7632 32.6984 78.0441C34.9207 79.325 37.4405 79.9993 40.0055 79.9993C42.5704 79.9993 45.0903 79.325 47.3125 78.0441C49.5347 76.7632 51.3812 74.9207 52.6668 72.7012C53.9596 74.9264 55.8152 76.7722 58.0471 78.0533C60.279 79.3344 62.8088 80.0057 65.3822 79.9998C67.9557 79.9939 70.4823 79.3109 72.7083 78.0195C74.9343 76.7281 76.7813 74.8738 78.0639 72.6427C79.3464 70.4116 80.0194 67.8823 80.0151 65.3088C80.0108 62.7353 79.3295 60.2083 78.0395 57.9815C76.7495 55.7546 74.8964 53.9064 72.6661 52.6224C70.4358 51.3384 67.907 50.6639 65.3335 50.6665ZM14.6668 77.3332C12.4713 77.3351 10.3174 76.7347 8.43948 75.5972C6.56159 74.4598 5.03174 72.829 4.01648 70.8823C3.00122 68.9357 2.53946 66.7478 2.68149 64.5569C2.82352 62.366 3.56388 60.2561 4.82198 58.4568C6.08008 56.6575 7.80768 55.2378 9.81671 54.3524C11.8257 53.4669 14.0392 53.1496 16.216 53.435C18.3929 53.7203 20.4498 54.5974 22.1627 55.9708C23.8756 57.3441 25.179 59.1611 25.9308 61.2238C25.1343 63.9055 25.1343 66.7609 25.9308 69.4425C25.0925 71.7564 23.5612 73.7556 21.5456 75.1676C19.5299 76.5796 17.1279 77.3358 14.6668 77.3332ZM40.0001 77.3332C37.6268 77.3332 35.3067 76.6294 33.3333 75.3108C31.3599 73.9922 29.8218 72.1181 28.9136 69.9254C28.0053 67.7327 27.7677 65.3199 28.2307 62.9921C28.6937 60.6643 29.8366 58.5261 31.5149 56.8479C33.1931 55.1697 35.3313 54.0268 37.6591 53.5638C39.9868 53.1007 42.3996 53.3384 44.5923 54.2466C46.7851 55.1549 48.6592 56.6929 49.9778 58.6663C51.2964 60.6397 52.0001 62.9598 52.0001 65.3332C51.9966 68.5147 50.7312 71.5649 48.4815 73.8146C46.2319 76.0642 43.1817 77.3297 40.0001 77.3332ZM65.3335 77.3332C63.3606 77.3352 61.4179 76.8493 59.6783 75.9188C57.9387 74.9883 56.4562 73.642 55.3628 71.9999H57.3335C58.0407 71.9999 58.719 71.7189 59.2191 71.2188C59.7192 70.7187 60.0001 70.0404 60.0001 69.3332V64.5519L64.2041 68.7559C64.504 69.0547 64.9101 69.2224 65.3335 69.2224C65.7568 69.2224 66.1629 69.0547 66.4628 68.7559L70.6668 64.5519V69.3332C70.6668 70.0404 70.9478 70.7187 71.4479 71.2188C71.948 71.7189 72.6262 71.9999 73.3335 71.9999H75.3041C74.2085 73.6397 72.7255 74.9843 70.9864 75.9145C69.2473 76.8448 67.3057 77.332 65.3335 77.3332ZM76.6335 69.3332H73.3335V61.9732C73.3327 61.6573 73.2384 61.3488 73.0625 61.0864C72.8867 60.824 72.6371 60.6196 72.3452 60.4988C72.0534 60.378 71.7323 60.3464 71.4225 60.4078C71.1126 60.4692 70.8279 60.6209 70.6041 60.8438L65.3335 66.1145L60.0628 60.8438C59.8391 60.6209 59.5543 60.4692 59.2445 60.4078C58.9347 60.3464 58.6136 60.378 58.3217 60.4988C58.0299 60.6196 57.7803 60.824 57.6044 61.0864C57.4286 61.3488 57.3343 61.6573 57.3335 61.9732V69.3332H54.0988C54.8661 66.6831 54.8559 63.8683 54.0695 61.2238C55.1448 58.2317 57.3648 55.7892 60.241 54.4339C63.1172 53.0785 66.414 52.9211 69.4061 53.9965C72.3983 55.0719 74.8408 57.2918 76.1961 60.168C77.5515 63.0442 77.7088 66.341 76.6335 69.3332Z" fill="#1C60DD"/>
<path d="M56.0002 37.3335C56.7074 37.3335 57.3857 37.0525 57.8858 36.5525C58.3859 36.0524 58.6668 35.3741 58.6668 34.6668V8.00016C58.6668 7.29292 58.3859 6.61464 57.8858 6.11454C57.3857 5.61445 56.7074 5.3335 56.0002 5.3335H24.0002C23.2929 5.3335 22.6146 5.61445 22.1145 6.11454C21.6144 6.61464 21.3335 7.29292 21.3335 8.00016V34.6668C21.3335 35.3741 21.6144 36.0524 22.1145 36.5525C22.6146 37.0525 23.2929 37.3335 24.0002 37.3335H56.0002ZM24.0002 8.00016H56.0002V34.6668H24.0002V8.00016Z" fill="#1C60DD"/>
<path d="M44.8974 13.8227C44.8881 13.8121 44.8854 13.8001 44.8761 13.7907C44.8667 13.7814 44.8547 13.7787 44.8441 13.7694C42.8496 11.7823 40.1489 10.6665 37.3334 10.6665C34.518 10.6665 31.8172 11.7823 29.8227 13.7694C29.8121 13.7787 29.8001 13.7814 29.7907 13.7907C29.7814 13.8001 29.7787 13.8121 29.7694 13.8227C27.7823 15.8172 26.6665 18.518 26.6665 21.3334C26.6665 24.1489 27.7823 26.8496 29.7694 28.8441C29.7787 28.8547 29.7814 28.8667 29.7907 28.8761C29.8001 28.8854 29.8121 28.8881 29.8227 28.8974C31.8172 30.8846 34.518 32.0003 37.3334 32.0003C40.1489 32.0003 42.8496 30.8846 44.8441 28.8974C44.8547 28.8881 44.8667 28.8854 44.8761 28.8761C44.8854 28.8667 44.8881 28.8547 44.8974 28.8441C46.8846 26.8496 48.0003 24.1489 48.0003 21.3334C48.0003 18.518 46.8846 15.8172 44.8974 13.8227ZM43.8307 25.9801C43.5796 25.7644 43.2562 25.6515 42.9253 25.664C42.5944 25.6766 42.2805 25.8136 42.0464 26.0477C41.8123 26.2819 41.6752 26.5958 41.6627 26.9266C41.6501 27.2575 41.763 27.5809 41.9787 27.8321C40.9887 28.5433 39.8481 29.0169 38.6454 29.2161C38.6196 28.8865 38.4705 28.5788 38.2278 28.3543C37.9851 28.1298 37.6667 28.0052 37.3361 28.0052C37.0055 28.0052 36.6871 28.1298 36.4444 28.3543C36.2016 28.5788 36.0525 28.8865 36.0267 29.2161C34.8239 29.0175 33.6832 28.5439 32.6934 27.8321C32.9091 27.5809 33.022 27.2575 33.0095 26.9266C32.9969 26.5958 32.8599 26.2819 32.6257 26.0477C32.3916 25.8136 32.0777 25.6766 31.7468 25.664C31.416 25.6515 31.0926 25.7644 30.8414 25.9801C30.1296 24.9903 29.656 23.8496 29.4574 22.6467C29.787 22.621 30.0947 22.4718 30.3192 22.2291C30.5436 21.9864 30.6683 21.668 30.6683 21.3374C30.6683 21.0068 30.5436 20.6884 30.3192 20.4457C30.0947 20.203 29.787 20.0539 29.4574 20.0281C29.6566 18.8254 30.1302 17.6848 30.8414 16.6947C31.0926 16.9105 31.416 17.0234 31.7468 17.0108C32.0777 16.9983 32.3916 16.8612 32.6257 16.6271C32.8599 16.393 32.9969 16.079 33.0095 15.7482C33.022 15.4173 32.9091 15.0939 32.6934 14.8427C33.6832 14.131 34.8239 13.6573 36.0267 13.4587C36.0525 13.7883 36.2016 14.0961 36.4444 14.3205C36.6871 14.545 37.0055 14.6697 37.3361 14.6697C37.6667 14.6697 37.9851 14.545 38.2278 14.3205C38.4705 14.0961 38.6196 13.7883 38.6454 13.4587C39.8481 13.6579 40.9887 14.1315 41.9787 14.8427C41.7573 15.093 41.6397 15.4182 41.6499 15.7522C41.6601 16.0862 41.7973 16.4037 42.0335 16.6399C42.2698 16.8762 42.5873 17.0134 42.9213 17.0236C43.2552 17.0338 43.5805 16.9162 43.8307 16.6947C44.542 17.6848 45.0155 18.8254 45.2147 20.0281C44.8852 20.0539 44.5774 20.203 44.353 20.4457C44.1285 20.6884 44.0038 21.0068 44.0038 21.3374C44.0038 21.668 44.1285 21.9864 44.353 22.2291C44.5774 22.4718 44.8852 22.621 45.2147 22.6467C45.0165 23.8495 44.5434 24.9902 43.8321 25.9801H43.8307Z" fill="#1C60DD"/>
<path d="M44.8001 64.6277C45.1456 64.0315 45.3295 63.3554 45.3334 62.6663C45.3334 61.6055 44.912 60.5881 44.1618 59.8379C43.4117 59.0878 42.3943 58.6663 41.3334 58.6663C41.3334 58.3127 41.1929 57.9736 40.9429 57.7235C40.6928 57.4735 40.3537 57.333 40.0001 57.333C39.6465 57.333 39.3073 57.4735 39.0573 57.7235C38.8072 57.9736 38.6667 58.3127 38.6667 58.6663H36.0001C35.6465 58.6663 35.3073 58.8068 35.0573 59.0569C34.8072 59.3069 34.6667 59.6461 34.6667 59.9997C34.6667 60.3533 34.8072 60.6924 35.0573 60.9425C35.3073 61.1925 35.6465 61.333 36.0001 61.333H37.3334V63.9997H36.0001C35.6465 63.9997 35.3073 64.1401 35.0573 64.3902C34.8072 64.6402 34.6667 64.9794 34.6667 65.333C34.6667 65.6866 34.8072 66.0258 35.0573 66.2758C35.3073 66.5259 35.6465 66.6663 36.0001 66.6663H37.3334V69.333H36.0001C35.6465 69.333 35.3073 69.4735 35.0573 69.7235C34.8072 69.9736 34.6667 70.3127 34.6667 70.6663C34.6667 71.0199 34.8072 71.3591 35.0573 71.6091C35.3073 71.8592 35.6465 71.9997 36.0001 71.9997H38.6667C38.6667 72.3533 38.8072 72.6924 39.0573 72.9425C39.3073 73.1925 39.6465 73.333 40.0001 73.333C40.3537 73.333 40.6928 73.1925 40.9429 72.9425C41.1929 72.6924 41.3334 72.3533 41.3334 71.9997H42.6667C43.5335 72.0017 44.3774 71.7215 45.0709 71.2015C45.7644 70.6815 46.2697 69.95 46.5107 69.1174C46.7516 68.2847 46.715 67.3963 46.4064 66.5864C46.0978 65.7764 45.534 65.0889 44.8001 64.6277ZM40.0001 61.333H41.3334C41.687 61.333 42.0262 61.4735 42.2762 61.7235C42.5263 61.9736 42.6667 62.3127 42.6667 62.6663C42.6667 63.02 42.5263 63.3591 42.2762 63.6091C42.0262 63.8592 41.687 63.9997 41.3334 63.9997H40.0001V61.333ZM42.6667 69.333H40.0001V66.6663H42.6667C43.0204 66.6663 43.3595 66.8068 43.6096 67.0569C43.8596 67.3069 44.0001 67.646 44.0001 67.9997C44.0001 68.3533 43.8596 68.6924 43.6096 68.9425C43.3595 69.1925 43.0204 69.333 42.6667 69.333Z" fill="#1C60DD"/>
<path d="M18.4478 62.6854L16.8918 62.9441L18.5518 59.2108C18.6954 58.8875 18.7047 58.5205 18.5776 58.1905C18.4506 57.8604 18.1977 57.5943 17.8745 57.4508C17.5513 57.3072 17.1843 57.2979 16.8542 57.4249C16.5241 57.5519 16.258 57.8049 16.1145 58.1281L13.7331 63.4668L10.4425 64.0161C10.109 64.068 9.80768 64.2444 9.59917 64.5097C9.39067 64.7751 9.29053 65.1096 9.31895 65.4458C9.34736 65.7821 9.50222 66.0951 9.75229 66.3216C10.0024 66.5482 10.329 66.6716 10.6665 66.6668C10.7402 66.6671 10.8138 66.6609 10.8865 66.6481L12.4425 66.3894L10.7825 70.1228C10.6917 70.3258 10.6532 70.5483 10.6704 70.77C10.6877 70.9917 10.7601 71.2056 10.8811 71.3922C11.002 71.5788 11.1678 71.7321 11.3632 71.8383C11.5586 71.9445 11.7774 72.0001 11.9998 72.0001H17.3331C17.6868 72.0001 18.0259 71.8596 18.2759 71.6096C18.526 71.3595 18.6665 71.0204 18.6665 70.6668C18.6665 70.3131 18.526 69.974 18.2759 69.724C18.0259 69.4739 17.6868 69.3334 17.3331 69.3334H14.0518L15.5998 65.8668L18.8905 65.3174C19.2306 65.2503 19.5311 65.0533 19.7285 64.7683C19.9258 64.4832 20.0043 64.1326 19.9474 63.7906C19.8906 63.4486 19.7027 63.1422 19.4238 62.9364C19.1448 62.7306 18.7967 62.6415 18.4531 62.6881L18.4478 62.6854Z" fill="#1C60DD"/>
<path d="M37.3335 17.3335C36.5424 17.3335 35.769 17.5681 35.1112 18.0076C34.4534 18.4471 33.9407 19.0719 33.638 19.8028C33.3352 20.5337 33.256 21.3379 33.4104 22.1139C33.5647 22.8898 33.9457 23.6025 34.5051 24.1619C35.0645 24.7213 35.7772 25.1023 36.5531 25.2566C37.3291 25.411 38.1333 25.3318 38.8642 25.029C39.5951 24.7263 40.2199 24.2136 40.6594 23.5558C41.0989 22.898 41.3335 22.1246 41.3335 21.3335C41.3335 20.2726 40.9121 19.2552 40.1619 18.5051C39.4118 17.7549 38.3944 17.3335 37.3335 17.3335ZM37.3335 22.6668C37.0698 22.6668 36.812 22.5886 36.5927 22.4421C36.3735 22.2956 36.2026 22.0874 36.1017 21.8437C36.0007 21.6001 35.9743 21.332 36.0258 21.0734C36.0772 20.8147 36.2042 20.5772 36.3907 20.3907C36.5772 20.2042 36.8147 20.0772 37.0734 20.0258C37.332 19.9743 37.6001 20.0007 37.8437 20.1017C38.0874 20.2026 38.2956 20.3735 38.4421 20.5927C38.5886 20.812 38.6668 21.0698 38.6668 21.3335C38.6668 21.6871 38.5264 22.0263 38.2763 22.2763C38.0263 22.5264 37.6871 22.6668 37.3335 22.6668Z" fill="#1C60DD"/>
<path d="M52.0001 13.333C51.6465 13.333 51.3073 13.4735 51.0573 13.7235C50.8072 13.9736 50.6667 14.3127 50.6667 14.6663V27.9997C50.6667 28.3533 50.8072 28.6924 51.0573 28.9425C51.3073 29.1925 51.6465 29.333 52.0001 29.333C52.3537 29.333 52.6928 29.1925 52.9429 28.9425C53.1929 28.6924 53.3334 28.3533 53.3334 27.9997V14.6663C53.3334 14.3127 53.1929 13.9736 52.9429 13.7235C52.6928 13.4735 52.3537 13.333 52.0001 13.333Z" fill="#1C60DD"/>
<path d="M78.6667 45.3333H58.6667V42.6667H60C61.0609 42.6667 62.0783 42.2452 62.8284 41.4951C63.5786 40.7449 64 39.7275 64 38.6667V4C64 2.93913 63.5786 1.92172 62.8284 1.17157C62.0783 0.421427 61.0609 0 60 0L20 0C18.9391 0 17.9217 0.421427 17.1716 1.17157C16.4214 1.92172 16 2.93913 16 4V38.6667C16 39.7275 16.4214 40.7449 17.1716 41.4951C17.9217 42.2452 18.9391 42.6667 20 42.6667H21.3333V45.3333H1.33333C0.979711 45.3333 0.640573 45.4738 0.390524 45.7239C0.140476 45.9739 0 46.313 0 46.6667C0 47.0203 0.140476 47.3594 0.390524 47.6095C0.640573 47.8595 0.979711 48 1.33333 48H78.6667C79.0203 48 79.3594 47.8595 79.6095 47.6095C79.8595 47.3594 80 47.0203 80 46.6667C80 46.313 79.8595 45.9739 79.6095 45.7239C79.3594 45.4738 79.0203 45.3333 78.6667 45.3333ZM56 45.3333H52.6667L50.6667 42.6667H56V45.3333ZM47.3333 42.6667L49.3333 45.3333H30.6667L32.6667 42.6667H47.3333ZM18.6667 38.6667V4C18.6667 3.64638 18.8071 3.30724 19.0572 3.05719C19.3072 2.80714 19.6464 2.66667 20 2.66667H60C60.3536 2.66667 60.6928 2.80714 60.9428 3.05719C61.1929 3.30724 61.3333 3.64638 61.3333 4V38.6667C61.3333 39.0203 61.1929 39.3594 60.9428 39.6095C60.6928 39.8595 60.3536 40 60 40H20C19.6464 40 19.3072 39.8595 19.0572 39.6095C18.8071 39.3594 18.6667 39.0203 18.6667 38.6667ZM24 42.6667H29.3333L27.3333 45.3333H24V42.6667Z" fill="#1C60DD"/>
</g>
<defs>
<clipPath id="clip0">
<rect width="80" height="80" fill="white"/>
</clipPath>
</defs>
</svg>
