<svg width="80" height="80" viewBox="0 0 80 80" fill="none" xmlns="http://www.w3.org/2000/svg">
<g clip-path="url(#clip0)">
<path d="M73.2549 46.5273H72.2455V38.6251C72.2455 34.5336 68.9168 31.2048 64.8251 31.2048H37.2048C37.2051 31.1705 37.2073 31.1361 37.2073 31.1017C37.2073 24.4728 31.8143 19.0798 25.1854 19.0798C23.5293 19.0798 21.9248 19.4108 20.4163 20.0633C19.8224 20.3201 19.5491 21.0098 19.8062 21.6037C20.063 22.1976 20.7529 22.4711 21.3466 22.2139C22.5598 21.6892 23.8512 21.4231 25.1854 21.4231C30.5223 21.4231 34.864 25.7648 34.864 31.1017C34.864 31.1359 34.8619 31.1705 34.8616 31.2048H29.3441L26.2268 25.1578C26.0259 24.768 25.624 24.523 25.1854 24.523C24.7468 24.523 24.3449 24.768 24.144 25.1578L21.0266 31.2048H15.5085C15.5082 31.1705 15.5068 31.1361 15.5068 31.1017C15.5068 28.9836 16.1782 26.9725 17.4483 25.2858C17.8376 24.7689 17.7341 24.0342 17.2173 23.645C16.7002 23.2556 15.9657 23.3592 15.5765 23.8761C13.9979 25.9723 13.1635 28.4709 13.1635 31.1017C13.1635 31.1359 13.1649 31.1705 13.1652 31.2048H9.86929C5.77772 31.2048 2.44897 34.5336 2.44897 38.6251V72.5795C2.44897 76.6711 5.77772 79.9998 9.86929 79.9998H50.0437C50.6908 79.9998 51.2154 79.4753 51.2154 78.8281C51.2154 78.1809 50.6908 77.6564 50.0437 77.6564H9.86929C7.06976 77.6564 4.79226 75.3787 4.79226 72.5794V68.8067H12.9132C13.4763 68.8067 14.0058 68.5873 14.4044 68.1891L16.5193 66.0742H19.7319C20.1266 66.7161 20.8332 67.1456 21.6419 67.1456C22.8807 67.1456 23.8849 66.1414 23.8849 64.9026C23.8849 63.6639 22.8807 62.6597 21.6419 62.6597C20.8332 62.6597 20.1265 63.0892 19.7319 63.7311H16.4224C15.859 63.7311 15.3293 63.9506 14.9312 64.3487L12.8163 66.4636H4.7921V60.9045H27.1538C27.5485 61.5464 28.2551 61.9759 29.0638 61.9759C30.3026 61.9759 31.3068 60.9717 31.3068 59.733C31.3068 58.4942 30.3026 57.49 29.0638 57.49C28.2551 57.49 27.5485 57.9195 27.1538 58.5612H4.7921V52.9306H15.0402L17.3612 55.2517C17.7596 55.6498 18.2891 55.8692 18.8523 55.8692H33.9937C34.3883 56.5111 35.0949 56.9406 35.9037 56.9406C37.1424 56.9406 38.1466 55.9364 38.1466 54.6976C38.1466 53.4589 37.1424 52.4547 35.9037 52.4547C35.0949 52.4547 34.3883 52.8842 33.9937 53.5261H18.9493L16.6285 51.2053C16.2302 50.807 15.7005 50.5876 15.1373 50.5876H4.7921V46.562H16.013L18.1277 48.6767C18.526 49.0751 19.0557 49.2945 19.6191 49.2945H22.6718C23.0665 49.9364 23.773 50.3659 24.5818 50.3659C25.8205 50.3659 26.8248 49.3617 26.8248 48.123C26.8248 46.8842 25.8205 45.88 24.5818 45.88C23.773 45.88 23.0665 46.3095 22.6718 46.9514H19.7163L17.6016 44.8367C17.2034 44.4383 16.6737 44.2189 16.1102 44.2189H4.7921V38.6256C4.7921 35.8261 7.06976 33.5486 9.86913 33.5486H64.8252C67.6248 33.5486 69.9023 35.8262 69.9023 38.6256V46.5278H49.1082C46.7394 46.5278 44.8123 48.455 44.8123 50.8237V60.3816C44.8123 62.7505 46.7394 64.6776 49.1082 64.6776H69.9024V72.5798C69.9024 75.3794 67.6249 77.6569 64.8254 77.6569H56.214C55.5668 77.6569 55.0423 78.1814 55.0423 78.8286C55.0423 79.4758 55.5668 79.9998 56.214 79.9998H64.8252C68.9168 79.9998 72.2457 76.6711 72.2457 72.5795V64.6773H73.2551C75.6238 64.6773 77.5512 62.7501 77.5512 60.3812V50.8234C77.551 48.4545 75.6237 46.5273 73.2549 46.5273ZM25.1852 28.2516L26.7076 31.2047H23.6629L25.1852 28.2516ZM75.2077 60.3812C75.2077 61.458 74.3318 62.3339 73.2551 62.3339H49.1082C48.0315 62.3339 47.1555 61.458 47.1555 60.3812V50.8234C47.1555 49.7467 48.0315 48.8708 49.1082 48.8708H73.2549C74.3316 48.8708 75.2076 49.7467 75.2076 50.8234V60.3812H75.2077Z" fill="#1C60DD"/>
<path d="M54.9628 50.9546C52.5981 50.9546 50.6742 52.8785 50.6742 55.2432C50.6742 57.6079 52.5981 59.5318 54.9628 59.5318C57.3276 59.5318 59.2515 57.6079 59.2515 55.2432C59.2515 52.8785 57.3276 50.9546 54.9628 50.9546ZM54.9628 57.1885C53.8901 57.1885 53.0175 56.3158 53.0175 55.2432C53.0175 54.1705 53.8901 53.2979 54.9628 53.2979C56.0354 53.2979 56.9083 54.1705 56.9083 55.2432C56.9083 56.3158 56.0354 57.1885 54.9628 57.1885Z" fill="#1C60DD"/>
<path d="M44.2974 23.6834C44.393 23.7073 44.4888 23.7189 44.5833 23.7189C45.108 23.7189 45.5855 23.3639 45.7188 22.8319C45.8763 22.2042 45.495 21.5678 44.8674 21.4105C40.5594 20.3305 37.5508 16.4697 37.5508 12.0219C37.5508 6.685 41.8925 2.34328 47.2295 2.34328C50.245 2.34328 53.0784 3.76219 54.8974 6.11656C53.7338 6.70953 52.6784 7.485 51.771 8.40734C51.0878 7.96016 50.2881 7.71828 49.4586 7.71828H46.4045C45.9599 7.71828 45.5535 7.97 45.3555 8.36828L44.1591 10.7744H41.9345C41.2874 10.7744 40.7628 11.2989 40.7628 11.9459C40.7628 12.593 41.2874 13.1175 41.9345 13.1175H42.9941L42.3164 14.4805C42.1358 14.8436 42.156 15.2744 42.3697 15.6192C42.5833 15.9641 42.96 16.1737 43.3656 16.1737H48.3331C48.3213 16.3919 48.3144 16.6114 48.3144 16.8323C48.3144 23.4613 53.7075 28.8542 60.3364 28.8542C66.9653 28.8542 72.3583 23.4613 72.3583 16.8323C72.3583 10.2034 66.9653 4.81047 60.3364 4.81047C59.2353 4.81047 58.1697 4.96219 57.156 5.24078C54.927 1.98687 51.2063 0 47.2295 0C40.6006 0 35.2075 5.39297 35.2075 12.0219C35.2075 17.5462 38.9455 22.3417 44.2974 23.6834ZM45.2566 13.8305L47.1305 10.0614H49.4586C49.7477 10.0614 50.0283 10.1278 50.2827 10.2517C49.5702 11.3364 49.0263 12.5411 48.6936 13.8305H45.2566ZM70.0145 16.8325C70.0145 22.1694 65.6728 26.5111 60.3359 26.5111C54.9991 26.5111 50.6572 22.1694 50.6572 16.8325C50.6572 11.4956 54.9989 7.15391 60.3359 7.15391C65.6728 7.15391 70.0145 11.4956 70.0145 16.8325Z" fill="#1C60DD"/>
<path d="M58.3118 22.0882H58.317C58.3173 22.0882 60.4979 22.0785 61.0989 22.0785C62.9573 22.0785 64.4692 20.5667 64.4692 18.7082C64.4692 17.6968 64.0192 16.7904 63.3115 16.1721C63.5793 15.7185 63.7357 15.1917 63.7357 14.6279C63.7357 12.9454 62.367 11.5767 60.6846 11.5767H58.312C57.6648 11.5767 57.1403 12.1012 57.1403 12.7482V20.9167C57.1403 21.2284 57.2645 21.5271 57.4853 21.747C57.7048 21.9656 58.002 22.0882 58.3118 22.0882ZM61.099 19.7353C60.7985 19.7353 60.1045 19.7378 59.4835 19.7401V17.6824L61.099 17.6812C61.6653 17.6812 62.126 18.142 62.126 18.7082C62.1259 19.2746 61.6653 19.7353 61.099 19.7353ZM60.6846 13.9199C61.0751 13.9199 61.3924 14.2374 61.3924 14.6279C61.3924 15.0182 61.0749 15.3357 60.6846 15.3357C60.5092 15.3357 59.4835 15.3379 59.4835 15.3379V13.9199H60.6846Z" fill="#1C60DD"/>
</g>
<defs>
<clipPath id="clip0">
<rect width="80" height="80" fill="white"/>
</clipPath>
</defs>
</svg>
